<?xml version="1.0" encoding="UTF-8"?>
<svg xmlns="http://www.w3.org/2000/svg" xmlns:xlink="http://www.w3.org/1999/xlink" width="320px" height="160px" viewBox="0 0 320 160" version="1.1">
<defs>
<radialGradient id="radial0" gradientUnits="userSpaceOnUse" cx="673.845" cy="1118.777" fx="673.845" fy="1118.777" r="646.025" gradientTransform="matrix(0.307648,-0.0516539,0.0314114,0.186731,-216.535527,-39.575253)">
<stop offset="0" style="stop-color:rgb(99.607843%,83.529412%,46.27451%);stop-opacity:1;"/>
<stop offset="0.263" style="stop-color:rgb(95.686275%,44.313725%,20%);stop-opacity:1;"/>
<stop offset="0.609" style="stop-color:rgb(73.72549%,18.823529%,50.588235%);stop-opacity:1;"/>
<stop offset="1" style="stop-color:rgb(29.803922%,38.823529%,82.352941%);stop-opacity:1;"/>
</radialGradient>
<radialGradient id="radial1" gradientUnits="userSpaceOnUse" cx="673.845" cy="1118.777" fx="673.845" fy="1118.777" r="646.025" gradientTransform="matrix(0.307648,-0.0516539,0.0314114,0.186731,-216.535527,-39.575253)">
<stop offset="0" style="stop-color:rgb(99.607843%,83.529412%,46.27451%);stop-opacity:1;"/>
<stop offset="0.263" style="stop-color:rgb(95.686275%,44.313725%,20%);stop-opacity:1;"/>
<stop offset="0.609" style="stop-color:rgb(73.72549%,18.823529%,50.588235%);stop-opacity:1;"/>
<stop offset="1" style="stop-color:rgb(29.803922%,38.823529%,82.352941%);stop-opacity:1;"/>
</radialGradient>
<radialGradient id="radial2" gradientUnits="userSpaceOnUse" cx="673.845" cy="1118.777" fx="673.845" fy="1118.777" r="646.025" gradientTransform="matrix(0.307648,-0.0516539,0.0314114,0.186731,-216.535527,-39.575253)">
<stop offset="0" style="stop-color:rgb(99.607843%,83.529412%,46.27451%);stop-opacity:1;"/>
<stop offset="0.263" style="stop-color:rgb(95.686275%,44.313725%,20%);stop-opacity:1;"/>
<stop offset="0.609" style="stop-color:rgb(73.72549%,18.823529%,50.588235%);stop-opacity:1;"/>
<stop offset="1" style="stop-color:rgb(29.803922%,38.823529%,82.352941%);stop-opacity:1;"/>
</radialGradient>
</defs>
<g id="surface1">
<path style=" stroke:none;fill-rule:nonzero;fill:rgb(8.627451%,21.568627%,37.254902%);fill-opacity:1;" d="M 117.921875 64.878906 C 121.652344 61.214844 123.96875 61.105469 123.96875 61.105469 C 124.828125 61.097656 125.675781 61.269531 126.464844 61.617188 C 128.230469 62.230469 128.332031 63.195312 128.332031 63.195312 L 128.332031 90.046875 C 128.558594 97.558594 126.6875 100.441406 124.453125 102.449219 C 123.773438 103.0625 122.933594 103.46875 122.03125 103.617188 C 121.886719 103.652344 121.734375 103.621094 121.617188 103.53125 C 121.503906 103.441406 121.433594 103.304688 121.429688 103.15625 C 121.464844 102.636719 121.578125 102.128906 121.761719 101.640625 C 122.886719 98.742188 122.792969 93.761719 122.792969 93.761719 L 122.902344 64.851562 C 122.902344 64.851562 122.988281 64.320312 122.539062 64.539062 C 118.132812 68.324219 117.578125 73.675781 117.4375 76.265625 C 117.367188 80.152344 119.015625 82.160156 119.015625 82.160156 C 119.273438 82.398438 119.410156 82.738281 119.394531 83.089844 C 119.414062 83.277344 119.34375 83.464844 119.210938 83.597656 C 119.078125 83.730469 118.894531 83.796875 118.707031 83.777344 C 117.046875 83.617188 114.402344 81.753906 113.464844 79.484375 C 112.972656 78.390625 112.703125 77.210938 112.675781 76.011719 C 113.089844 71.804688 114.953125 67.871094 117.941406 64.882812 Z M 310.292969 90.515625 C 310.292969 99.136719 305.066406 99.003906 305.066406 99.003906 C 300.089844 99.175781 298.820312 93.925781 298.511719 88.585938 C 298.273438 84.566406 298.511719 80.097656 298.511719 80.097656 C 298.511719 80.097656 298.511719 79.894531 298.339844 80.097656 C 296.671875 83.113281 295.542969 87.699219 294.988281 91.238281 C 294.746094 92.808594 294.597656 94.390625 294.546875 95.980469 C 294.597656 96.285156 294.464844 96.59375 294.207031 96.769531 C 291.507812 98.007812 289.769531 96.246094 289.15625 94.28125 C 288.367188 92.414062 287.859375 81.203125 287.859375 80.617188 C 287.859375 80.035156 287.390625 80.4375 287.390625 80.4375 C 283.648438 86.652344 283.617188 95.863281 283.617188 97.710938 C 283.617188 99.558594 280.457031 98.988281 280.457031 98.988281 C 277.753906 98.785156 277.859375 97.46875 277.859375 97.46875 L 277.734375 95.242188 C 276.792969 96.976562 275.054688 99.1875 272.375 99.039062 C 268.316406 98.777344 267.535156 94.578125 267.464844 93.867188 C 267.464844 93.867188 265.445312 99.09375 259.894531 99.039062 C 256.117188 98.976562 254.601562 95.09375 254.601562 95.09375 C 254.601562 95.09375 253.082031 99.171875 249.375 99.039062 C 245.667969 98.90625 242.601562 94.613281 242.835938 89.050781 C 242.886719 86.234375 243.265625 83.433594 243.960938 80.703125 C 243.960938 80.703125 244.261719 80.171875 243.753906 80.113281 C 243.246094 80.054688 240.042969 80.164062 240.042969 80.164062 C 240.042969 80.164062 238.230469 87.4375 230.566406 96.480469 L 230.617188 102.453125 C 230.617188 108.398438 229.878906 116.375 221.820312 117.023438 C 214.851562 116.550781 215.246094 111.183594 215.246094 111.183594 C 215.082031 109.605469 216.074219 106.699219 220.234375 102.796875 L 226.046875 97.394531 L 225.882812 94.898438 C 223.222656 99.296875 219.15625 99.054688 219.15625 99.054688 C 219.15625 99.054688 215.996094 99.691406 213.367188 95.019531 C 212.578125 96.597656 210.824219 99.355469 207.9375 99.039062 C 203.878906 98.585938 203.070312 94.542969 203.007812 93.824219 C 203.007812 93.824219 200.980469 99.097656 195.394531 99.039062 C 191.609375 98.972656 190.078125 95.050781 190.078125 95.050781 C 189.660156 94.183594 189.339844 93.273438 189.125 92.332031 L 188.960938 92.824219 C 188.097656 95.027344 185.972656 98.855469 182.707031 98.902344 C 176.707031 98.902344 176.453125 89.601562 176.453125 89.601562 C 174.703125 93.761719 171.3125 99.015625 164.996094 98.984375 C 158.675781 98.953125 157.886719 96.667969 157.886719 96.339844 C 157.84375 95.699219 158.066406 95.070312 158.503906 94.601562 C 159.230469 93.550781 159.835938 93.113281 160.371094 93.113281 C 160.898438 93.261719 161.382812 93.53125 161.785156 93.902344 C 162.582031 94.667969 163.613281 95.140625 164.714844 95.246094 C 166.703125 95.171875 167.140625 93.578125 167.28125 91.953125 C 167.417969 90.324219 166.265625 88.585938 164.675781 87.136719 L 161.863281 84.570312 L 156.589844 93.257812 C 153.515625 98.257812 150.46875 99.03125 149.292969 98.875 C 147.691406 98.652344 146.132812 96.996094 146.039062 92.136719 L 146.402344 78.566406 C 146.402344 78.128906 146.007812 78.34375 146.007812 78.34375 C 139.9375 84.785156 138.113281 98.039062 138.113281 98.296875 C 137.898438 98.683594 137.46875 98.898438 137.03125 98.84375 C 136.488281 98.84375 137.214844 98.84375 135.042969 98.734375 C 132.871094 98.628906 133.019531 94.558594 133.019531 94.558594 L 133.164062 74.816406 C 133.164062 74.160156 133.8125 73.878906 135.871094 74.421875 C 137.933594 74.964844 137.863281 75.605469 137.863281 75.605469 L 137.789062 87.070312 C 143.105469 71.398438 147.113281 73.851562 149.542969 75.054688 C 151.96875 76.253906 151.601562 77.976562 151.601562 77.976562 L 151.238281 89.628906 C 151.132812 92.667969 151.558594 93.863281 152.253906 93.976562 C 153.976562 94.386719 160.023438 82.714844 160.023438 82.714844 C 157.347656 79.816406 158.808594 76.277344 160.894531 74.746094 C 161.832031 74.097656 162.917969 73.699219 164.054688 73.585938 C 164.054688 73.585938 166.761719 73.445312 166.691406 75.726562 C 166.765625 78.222656 163.984375 81.257812 163.984375 81.257812 C 169.371094 85.097656 171.878906 87.121094 172.296875 90.09375 C 172.417969 90.878906 172.363281 91.679688 172.140625 92.441406 C 175.96875 89.105469 176.265625 85.382812 176.265625 85.382812 L 176.328125 72.921875 L 170.648438 72.847656 C 170.648438 72.847656 170.214844 72.847656 170.113281 71.753906 C 170.039062 70.703125 170.421875 69.671875 171.164062 68.929688 L 176.585938 69 L 176.796875 62.484375 C 176.980469 61.179688 177.8125 61 180.191406 61.617188 C 182.574219 62.230469 182.558594 62.777344 182.558594 62.777344 L 182.292969 69.332031 L 189.054688 69.691406 C 189.851562 69.765625 190.105469 69.960938 189.921875 71.292969 C 189.90625 71.980469 189.539062 72.613281 188.945312 72.960938 L 182.222656 73.101562 L 181.757812 87.554688 C 181.757812 89.792969 181.863281 95.089844 183.960938 95.019531 C 186.894531 95.164062 188.617188 88.609375 188.617188 88.609375 L 188.617188 88.554688 C 188.582031 87.34375 188.625 86.132812 188.753906 84.929688 C 189.304688 79.664062 191.683594 73.496094 197.046875 73.496094 C 199.171875 73.542969 201.097656 74.757812 202.058594 76.65625 L 202.148438 75.472656 C 202.148438 75.472656 202.03125 74.042969 204.292969 74.398438 C 206.558594 74.753906 207.332031 75.644531 207.28125 76.363281 L 207.097656 90.957031 C 207.398438 94.117188 207.945312 95.964844 209.546875 95.835938 C 210.929688 95.632812 211.914062 93.742188 212.5 92.140625 C 210.496094 75.464844 219.609375 73.441406 219.609375 73.441406 C 219.609375 73.441406 223.652344 73.171875 225.492188 76.511719 L 225.542969 75.390625 C 225.542969 75.390625 225.363281 73.914062 227.5 74.324219 C 228.128906 74.421875 228.746094 74.582031 229.339844 74.800781 C 230.289062 75.15625 230.589844 75.390625 230.589844 76.277344 L 230.40625 92.75 C 230.40625 92.75 235.148438 86.367188 236.355469 80.164062 C 235.398438 79.449219 234.820312 78.339844 234.777344 77.148438 C 234.894531 75.371094 235.789062 73.246094 238.402344 73.246094 C 241.015625 73.246094 241.230469 75.558594 240.84375 77.136719 C 240.84375 77.136719 243.039062 76.871094 244.941406 76.347656 C 246.84375 75.828125 249.394531 75.558594 249.574219 78.535156 C 249.644531 79.1875 249.519531 79.847656 249.222656 80.433594 C 249.222656 80.433594 247.710938 87.019531 247.949219 89.679688 C 248.1875 92.339844 248.894531 96.359375 250.980469 95.886719 C 253.066406 95.414062 253.777344 92.460938 253.777344 92.460938 C 253.257812 90.035156 253.113281 87.539062 253.355469 85.070312 C 253.910156 79.84375 256.246094 73.722656 261.617188 73.722656 C 263.738281 73.773438 265.660156 74.988281 266.609375 76.882812 L 266.675781 75.699219 C 266.675781 75.699219 266.558594 74.277344 268.816406 74.632812 C 271.074219 74.988281 271.847656 75.871094 271.785156 76.578125 L 271.601562 91.058594 C 271.902344 94.21875 272.441406 96.035156 274.035156 95.90625 C 275.628906 95.777344 276.871094 93.261719 277.675781 91.167969 L 277.675781 90.378906 L 277.722656 75.003906 C 277.769531 74.511719 278.15625 74.125 278.644531 74.070312 L 280.492188 74.355469 C 283.078125 74.742188 282.71875 75.730469 282.71875 75.730469 L 282.71875 84.417969 C 284.640625 78.519531 285.5625 76.269531 286.433594 74.765625 C 287.171875 73.484375 289.59375 74.324219 289.59375 74.324219 C 289.59375 74.324219 292.230469 75.027344 292.257812 77.484375 C 292.179688 81.492188 292.75 88.023438 292.75 88.023438 C 292.75 88.023438 292.851562 88.15625 292.898438 88.113281 C 292.925781 88.070312 292.9375 88.019531 292.9375 87.96875 C 293.683594 83.523438 294.984375 79.191406 296.808594 75.066406 C 297.761719 73.273438 300.527344 74.546875 300.527344 74.546875 C 303.84375 75.683594 303.394531 77.652344 303.394531 77.652344 C 302.414062 94.511719 304.5 95.574219 305.734375 95.6875 C 306.964844 95.800781 307.613281 94.203125 307.878906 93.449219 C 308.148438 92.691406 308.492188 91.03125 308.667969 90.375 C 308.789062 89.996094 309.125 89.722656 309.523438 89.6875 C 309.929688 89.75 310.25 90.070312 310.3125 90.476562 Z M 198.375 77.59375 C 197.214844 77.644531 194.480469 78.382812 193.988281 85.996094 C 193.5 93.605469 195.515625 95.558594 197.210938 95.78125 C 198.90625 96.003906 201.949219 93.273438 202.089844 85.195312 C 202.230469 77.113281 198.371094 77.59375 198.371094 77.59375 Z M 222.1875 77.59375 C 221.003906 77.644531 218.03125 78.675781 217.359375 86.03125 C 216.863281 93.71875 218.9375 95.710938 220.628906 95.941406 C 222.320312 96.171875 225.367188 93.40625 225.582031 85.214844 C 225.792969 77.023438 222.1875 77.632812 222.1875 77.632812 Z M 226.132812 101.183594 C 219.40625 106.996094 218.820312 111.148438 218.820312 111.148438 C 218.820312 111.148438 218.15625 114.550781 221.394531 114.722656 C 225.289062 115.117188 225.945312 110.386719 226.046875 106.246094 L 226.171875 101.226562 Z M 263.066406 77.863281 C 261.90625 77.910156 259.171875 78.652344 258.683594 86.265625 C 258.191406 93.875 260.207031 95.828125 261.902344 96.050781 C 263.601562 96.273438 266.644531 93.542969 266.785156 85.464844 C 266.925781 77.382812 263.0625 77.863281 263.0625 77.863281 Z M 263.066406 77.863281 "/>
<path style=" stroke:none;fill-rule:nonzero;fill:url(#radial0);" d="M 58.441406 55.707031 C 57.601562 55.707031 56.773438 55.75 55.957031 55.832031 C 55.140625 55.917969 54.332031 56.039062 53.542969 56.203125 C 52.75 56.367188 51.972656 56.566406 51.207031 56.804688 L 48.972656 57.628906 L 46.839844 58.65625 L 44.828125 59.878906 L 42.949219 61.285156 L 41.21875 62.859375 L 39.640625 64.589844 L 38.234375 66.46875 L 37.007812 68.476562 L 35.980469 70.605469 C 35.671875 71.332031 35.394531 72.078125 35.15625 72.839844 C 34.917969 73.601562 34.714844 74.382812 34.554688 75.171875 C 34.390625 75.964844 34.265625 76.769531 34.183594 77.585938 C 34.097656 78.402344 34.054688 79.230469 34.054688 80.066406 C 34.054688 80.90625 34.097656 81.734375 34.183594 82.550781 C 34.265625 83.359375 34.390625 84.164062 34.554688 84.964844 C 34.714844 85.757812 34.917969 86.53125 35.15625 87.292969 C 35.394531 88.054688 35.667969 88.800781 35.980469 89.53125 L 37.007812 91.660156 L 38.234375 93.667969 L 39.640625 95.542969 L 41.21875 97.277344 L 42.949219 98.851562 L 44.828125 100.257812 L 46.839844 101.480469 L 48.972656 102.507812 L 51.207031 103.332031 L 53.542969 103.933594 C 54.339844 104.097656 55.144531 104.21875 55.957031 104.304688 C 56.78125 104.386719 57.613281 104.429688 58.441406 104.429688 C 59.28125 104.429688 60.109375 104.386719 60.925781 104.304688 C 61.738281 104.21875 62.542969 104.097656 63.339844 103.933594 L 65.675781 103.332031 L 67.914062 102.507812 L 70.042969 101.480469 L 72.054688 100.257812 L 73.933594 98.851562 L 75.667969 97.277344 L 77.242188 95.542969 L 78.648438 93.667969 L 79.875 91.660156 L 80.902344 89.53125 L 81.726562 87.292969 C 81.964844 86.53125 82.167969 85.753906 82.328125 84.964844 L 82.703125 82.550781 C 82.785156 81.734375 82.828125 80.90625 82.828125 80.066406 C 82.828125 79.230469 82.785156 78.402344 82.703125 77.585938 C 82.617188 76.773438 82.496094 75.96875 82.328125 75.171875 C 82.167969 74.378906 81.964844 73.601562 81.726562 72.839844 L 80.902344 70.605469 L 79.875 68.476562 L 78.648438 66.46875 L 77.242188 64.589844 L 75.667969 62.859375 L 73.933594 61.285156 L 72.054688 59.878906 L 70.042969 58.65625 L 67.914062 57.628906 L 65.675781 56.804688 L 63.339844 56.203125 L 60.925781 55.832031 C 60.101562 55.746094 59.269531 55.707031 58.441406 55.707031 Z M 58.441406 64.113281 C 58.996094 64.113281 59.542969 64.140625 60.082031 64.195312 L 61.671875 64.4375 L 63.203125 64.828125 L 64.675781 65.363281 L 66.070312 66.03125 L 67.386719 66.828125 L 68.613281 67.742188 L 69.746094 68.769531 L 70.773438 69.898438 L 71.6875 71.125 L 72.484375 72.441406 L 73.15625 73.839844 C 73.355469 74.316406 73.535156 74.804688 73.691406 75.304688 C 73.84375 75.808594 73.976562 76.320312 74.082031 76.839844 C 74.1875 77.359375 74.265625 77.890625 74.320312 78.429688 L 74.402344 80.070312 C 74.402344 80.625 74.375 81.167969 74.320312 81.707031 C 74.265625 82.246094 74.1875 82.777344 74.082031 83.296875 C 73.976562 83.820312 73.84375 84.332031 73.691406 84.832031 L 73.15625 86.300781 L 72.484375 87.695312 L 71.6875 89.011719 L 70.773438 90.238281 L 69.746094 91.371094 L 68.613281 92.398438 L 67.386719 93.3125 L 66.070312 94.109375 L 64.675781 94.777344 L 63.203125 95.3125 L 61.671875 95.703125 L 60.082031 95.941406 C 59.535156 95.996094 58.988281 96.023438 58.441406 96.023438 C 57.894531 96.023438 57.34375 95.996094 56.800781 95.941406 L 55.210938 95.703125 C 54.691406 95.597656 54.179688 95.464844 53.675781 95.3125 L 52.207031 94.777344 L 50.8125 94.109375 L 49.496094 93.3125 L 48.269531 92.398438 L 47.136719 91.371094 L 46.109375 90.238281 L 45.191406 89.011719 L 44.394531 87.695312 L 43.726562 86.300781 L 43.191406 84.832031 L 42.800781 83.296875 L 42.5625 81.707031 C 42.507812 81.164062 42.480469 80.617188 42.480469 80.070312 C 42.480469 79.523438 42.507812 78.976562 42.5625 78.429688 C 42.613281 77.890625 42.695312 77.359375 42.800781 76.839844 C 42.90625 76.324219 43.035156 75.8125 43.191406 75.308594 L 43.726562 73.839844 L 44.394531 72.441406 L 45.191406 71.128906 L 46.109375 69.898438 L 47.136719 68.769531 L 48.269531 67.742188 L 49.496094 66.828125 L 50.8125 66.03125 L 52.207031 65.363281 C 52.6875 65.160156 53.179688 64.980469 53.675781 64.828125 L 55.210938 64.4375 C 55.734375 64.332031 56.265625 64.25 56.800781 64.195312 C 57.347656 64.140625 57.894531 64.113281 58.441406 64.113281 Z M 58.441406 64.113281 "/>
<path style=" stroke:none;fill-rule:nonzero;fill:url(#radial1);" d="M 83.816406 48.777344 C 83.621094 48.777344 83.429688 48.785156 83.238281 48.804688 C 83.042969 48.824219 82.851562 48.855469 82.664062 48.894531 C 82.472656 48.929688 82.285156 48.980469 82.101562 49.035156 C 81.914062 49.09375 81.734375 49.160156 81.554688 49.238281 C 81.375 49.3125 81.203125 49.398438 81.03125 49.492188 C 80.863281 49.585938 80.695312 49.6875 80.539062 49.796875 C 80.378906 49.90625 80.222656 50.023438 80.074219 50.152344 C 79.925781 50.277344 79.785156 50.410156 79.648438 50.550781 C 79.515625 50.6875 79.386719 50.835938 79.265625 50.988281 C 79.148438 51.140625 79.035156 51.300781 78.929688 51.464844 C 78.824219 51.628906 78.730469 51.796875 78.640625 51.96875 C 78.554688 52.144531 78.472656 52.320312 78.402344 52.503906 C 78.332031 52.683594 78.273438 52.871094 78.21875 53.058594 C 78.167969 53.246094 78.125 53.4375 78.09375 53.628906 C 78.0625 53.820312 78.039062 54.011719 78.023438 54.207031 C 78.015625 54.34375 78.007812 54.484375 78.007812 54.621094 C 78.007812 54.816406 78.019531 55.011719 78.039062 55.203125 C 78.058594 55.398438 78.085938 55.589844 78.125 55.78125 C 78.164062 55.972656 78.210938 56.164062 78.269531 56.347656 C 78.324219 56.535156 78.390625 56.71875 78.46875 56.898438 C 78.542969 57.078125 78.628906 57.253906 78.71875 57.421875 C 78.8125 57.59375 78.914062 57.761719 79.023438 57.921875 C 79.132812 58.082031 79.25 58.238281 79.375 58.386719 C 79.5 58.535156 79.632812 58.679688 79.769531 58.816406 C 79.910156 58.949219 80.054688 59.078125 80.207031 59.199219 C 80.359375 59.320312 80.515625 59.433594 80.679688 59.539062 C 80.84375 59.644531 81.011719 59.742188 81.183594 59.832031 C 81.355469 59.917969 81.53125 60 81.710938 60.070312 C 81.894531 60.140625 82.078125 60.203125 82.261719 60.253906 C 82.449219 60.304688 82.640625 60.347656 82.828125 60.382812 C 83.019531 60.414062 83.210938 60.4375 83.40625 60.453125 C 83.542969 60.460938 83.679688 60.46875 83.816406 60.46875 C 84.011719 60.46875 84.203125 60.457031 84.394531 60.4375 C 84.589844 60.417969 84.78125 60.390625 84.96875 60.351562 C 85.160156 60.3125 85.347656 60.265625 85.53125 60.207031 C 85.71875 60.148438 85.898438 60.082031 86.078125 60.003906 C 86.257812 59.929688 86.429688 59.84375 86.601562 59.75 C 86.769531 59.65625 86.9375 59.554688 87.09375 59.445312 C 87.253906 59.335938 87.410156 59.21875 87.558594 59.09375 C 87.707031 58.96875 87.847656 58.835938 87.980469 58.695312 C 88.117188 58.554688 88.246094 58.40625 88.367188 58.253906 C 88.484375 58.101562 88.597656 57.945312 88.703125 57.78125 C 88.808594 57.617188 88.902344 57.445312 88.992188 57.273438 C 89.078125 57.097656 89.160156 56.921875 89.230469 56.738281 C 89.300781 56.558594 89.359375 56.375 89.410156 56.183594 C 89.464844 55.996094 89.507812 55.808594 89.539062 55.617188 C 89.570312 55.421875 89.59375 55.230469 89.609375 55.035156 C 89.617188 54.898438 89.625 54.761719 89.625 54.621094 C 89.625 54.425781 89.613281 54.230469 89.59375 54.039062 C 89.574219 53.84375 89.546875 53.652344 89.507812 53.460938 C 89.46875 53.269531 89.421875 53.082031 89.363281 52.894531 C 89.308594 52.707031 89.242188 52.523438 89.164062 52.347656 C 89.089844 52.167969 89.003906 51.992188 88.914062 51.820312 C 88.820312 51.648438 88.71875 51.480469 88.609375 51.320312 C 88.5 51.160156 88.382812 51.003906 88.257812 50.855469 C 88.132812 50.707031 88 50.5625 87.863281 50.429688 C 87.722656 50.292969 87.578125 50.164062 87.425781 50.042969 C 87.273438 49.921875 87.117188 49.808594 86.953125 49.703125 C 86.789062 49.597656 86.621094 49.5 86.449219 49.414062 C 86.277344 49.324219 86.101562 49.242188 85.921875 49.171875 C 85.738281 49.101562 85.554688 49.042969 85.371094 48.988281 C 85.183594 48.9375 84.992188 48.894531 84.804688 48.859375 C 84.613281 48.828125 84.421875 48.804688 84.226562 48.789062 C 84.089844 48.78125 83.953125 48.777344 83.816406 48.777344 Z M 83.816406 48.777344 "/>
<path style=" stroke:none;fill-rule:nonzero;fill:url(#radial2);" d="M 53.816406 32.40625 C 51.164062 32.402344 48.796875 32.414062 46.671875 32.445312 L 40.972656 32.597656 C 39.28125 32.671875 37.789062 32.765625 36.453125 32.890625 C 35.78125 32.953125 35.148438 33.019531 34.550781 33.097656 C 33.980469 33.167969 33.414062 33.253906 32.847656 33.347656 C 32.308594 33.441406 31.796875 33.539062 31.304688 33.644531 C 30.816406 33.753906 30.347656 33.871094 29.894531 33.996094 C 29.453125 34.117188 29.015625 34.25 28.578125 34.394531 C 28.152344 34.539062 27.738281 34.691406 27.328125 34.855469 C 26.507812 35.179688 25.707031 35.542969 24.882812 35.953125 C 24.25 36.269531 23.664062 36.585938 23.105469 36.921875 C 22.550781 37.261719 22.023438 37.617188 21.507812 38.003906 C 20.972656 38.40625 20.460938 38.832031 19.96875 39.28125 C 19.457031 39.75 18.933594 40.265625 18.386719 40.839844 C 17.703125 41.558594 17.105469 42.230469 16.578125 42.886719 C 16.3125 43.214844 16.066406 43.539062 15.832031 43.867188 C 15.601562 44.191406 15.382812 44.519531 15.171875 44.855469 C 14.964844 45.1875 14.765625 45.527344 14.578125 45.875 C 14.386719 46.230469 14.207031 46.589844 14.039062 46.957031 C 13.691406 47.703125 13.367188 48.507812 13.042969 49.40625 C 12.800781 50.070312 12.585938 50.742188 12.398438 51.421875 C 12.203125 52.113281 12.03125 52.84375 11.878906 53.628906 C 11.726562 54.414062 11.589844 55.257812 11.472656 56.195312 C 11.347656 57.21875 11.246094 58.246094 11.167969 59.277344 C 11.085938 60.40625 11.011719 61.652344 10.957031 63.039062 L 10.816406 67.652344 L 10.742188 73.269531 L 10.722656 80.0625 L 10.785156 89.941406 L 10.980469 97.425781 L 11.132812 100.351562 L 11.320312 102.773438 C 11.378906 103.425781 11.457031 104.078125 11.546875 104.726562 C 11.628906 105.304688 11.714844 105.808594 11.8125 106.246094 C 12.003906 107.132812 12.234375 108.011719 12.496094 108.882812 C 12.75 109.714844 13.039062 110.535156 13.363281 111.34375 C 13.679688 112.136719 14.027344 112.898438 14.40625 113.632812 C 14.785156 114.367188 15.195312 115.074219 15.636719 115.75 C 16.074219 116.429688 16.546875 117.078125 17.046875 117.703125 C 17.550781 118.324219 18.082031 118.917969 18.648438 119.488281 C 19.210938 120.054688 19.804688 120.597656 20.433594 121.109375 C 21.066406 121.628906 21.726562 122.117188 22.410156 122.574219 C 23.042969 122.996094 23.667969 123.382812 24.300781 123.738281 C 24.933594 124.097656 25.566406 124.417969 26.222656 124.710938 C 26.878906 125.003906 27.546875 125.269531 28.25 125.507812 C 28.949219 125.746094 29.679688 125.957031 30.449219 126.144531 C 31.222656 126.332031 32.039062 126.496094 32.902344 126.640625 C 33.769531 126.785156 34.691406 126.90625 35.679688 127.011719 C 36.667969 127.117188 37.71875 127.207031 38.851562 127.28125 C 39.984375 127.351562 41.195312 127.410156 42.492188 127.457031 C 44.5 127.53125 47.542969 127.574219 51.046875 127.589844 L 62.394531 127.566406 L 73.136719 127.417969 L 77.222656 127.300781 L 79.886719 127.164062 C 80.457031 127.117188 81.015625 127.0625 81.554688 127 C 82.09375 126.933594 82.628906 126.859375 83.144531 126.777344 C 83.664062 126.695312 84.171875 126.601562 84.667969 126.496094 C 85.160156 126.394531 85.648438 126.28125 86.136719 126.152344 C 86.617188 126.03125 87.089844 125.890625 87.5625 125.746094 C 88.03125 125.597656 88.496094 125.4375 88.957031 125.265625 C 89.421875 125.09375 89.882812 124.910156 90.339844 124.714844 C 90.796875 124.519531 91.257812 124.3125 91.71875 124.089844 C 92.421875 123.75 92.992188 123.464844 93.492188 123.1875 C 93.960938 122.929688 94.414062 122.644531 94.847656 122.324219 C 95.273438 122.011719 95.695312 121.65625 96.1875 121.203125 C 96.675781 120.753906 97.226562 120.210938 97.914062 119.527344 C 98.515625 118.921875 99.023438 118.398438 99.464844 117.921875 C 99.902344 117.445312 100.269531 117.019531 100.59375 116.605469 C 100.902344 116.214844 101.191406 115.804688 101.457031 115.382812 C 101.714844 114.96875 101.953125 114.542969 102.195312 114.066406 C 102.5625 113.351562 102.886719 112.691406 103.179688 112.050781 C 103.460938 111.4375 103.71875 110.808594 103.953125 110.171875 C 104.183594 109.542969 104.378906 108.902344 104.546875 108.25 C 104.71875 107.582031 104.867188 106.875 104.996094 106.101562 C 105.125 105.324219 105.234375 104.484375 105.328125 103.539062 C 105.421875 102.597656 105.503906 101.558594 105.574219 100.390625 L 105.757812 96.464844 L 105.917969 91.585938 L 106.03125 86.148438 L 106.078125 80.460938 L 105.976562 69.292969 L 105.839844 64.292969 L 105.652344 60 L 105.421875 56.648438 C 105.335938 55.71875 105.246094 54.984375 105.148438 54.488281 C 105.042969 53.941406 104.921875 53.394531 104.789062 52.851562 C 104.660156 52.324219 104.519531 51.800781 104.367188 51.277344 C 104.21875 50.769531 104.054688 50.265625 103.878906 49.765625 C 103.707031 49.273438 103.519531 48.789062 103.328125 48.316406 C 103.136719 47.84375 102.929688 47.382812 102.710938 46.933594 C 102.496094 46.480469 102.265625 46.039062 102.027344 45.609375 C 101.789062 45.179688 101.542969 44.757812 101.28125 44.347656 C 101.019531 43.9375 100.75 43.539062 100.46875 43.152344 C 100.1875 42.761719 99.894531 42.386719 99.59375 42.015625 C 99.289062 41.648438 98.976562 41.292969 98.652344 40.945312 C 98.324219 40.597656 97.992188 40.261719 97.644531 39.9375 C 97.296875 39.609375 96.941406 39.292969 96.574219 38.988281 C 96.203125 38.683594 95.828125 38.390625 95.4375 38.105469 C 95.046875 37.820312 94.648438 37.546875 94.238281 37.289062 C 93.824219 37.023438 93.402344 36.769531 92.976562 36.53125 C 92.539062 36.289062 92.09375 36.058594 91.644531 35.839844 C 90.898438 35.476562 90.210938 35.15625 89.53125 34.867188 C 88.867188 34.585938 88.1875 34.335938 87.5 34.117188 C 86.804688 33.898438 86.082031 33.710938 85.289062 33.546875 C 84.496094 33.386719 83.628906 33.25 82.648438 33.136719 C 81.667969 33.023438 80.574219 32.929688 79.320312 32.851562 C 78.070312 32.777344 76.664062 32.714844 75.054688 32.667969 L 69.589844 32.542969 L 62.675781 32.464844 L 53.820312 32.410156 Z M 58.417969 40.808594 L 71.1875 40.882812 L 76.003906 40.976562 C 77.332031 41.011719 78.34375 41.054688 78.9375 41.105469 C 79.710938 41.171875 80.445312 41.253906 81.148438 41.351562 C 81.824219 41.445312 82.496094 41.558594 83.164062 41.699219 C 83.808594 41.832031 84.417969 41.984375 85.003906 42.160156 C 85.589844 42.332031 86.148438 42.523438 86.6875 42.738281 C 87.222656 42.949219 87.738281 43.1875 88.230469 43.441406 C 88.71875 43.699219 89.195312 43.980469 89.65625 44.285156 C 90.117188 44.589844 90.558594 44.914062 90.984375 45.269531 C 91.414062 45.621094 91.832031 46 92.238281 46.402344 C 92.664062 46.832031 93.058594 47.265625 93.425781 47.714844 C 93.789062 48.160156 94.125 48.625 94.429688 49.113281 C 94.742188 49.605469 95.019531 50.117188 95.269531 50.644531 C 95.519531 51.183594 95.75 51.75 95.953125 52.355469 C 96.15625 52.957031 96.339844 53.601562 96.5 54.285156 C 96.667969 55.011719 96.808594 55.746094 96.921875 56.484375 C 97.046875 57.265625 97.148438 58.101562 97.238281 58.992188 C 97.328125 59.886719 97.398438 60.839844 97.460938 61.855469 C 97.507812 62.675781 97.550781 63.753906 97.585938 65.027344 L 97.675781 69.367188 L 97.746094 80.003906 L 97.667969 90.632812 L 97.574219 94.960938 L 97.445312 98.113281 C 97.355469 99.585938 97.261719 100.824219 97.148438 101.90625 C 97.09375 102.445312 97.03125 102.941406 96.964844 103.410156 C 96.898438 103.855469 96.824219 104.292969 96.738281 104.734375 C 96.660156 105.132812 96.566406 105.53125 96.460938 105.925781 C 96.359375 106.300781 96.246094 106.671875 96.121094 107.042969 C 95.996094 107.410156 95.859375 107.777344 95.710938 108.140625 C 95.554688 108.523438 95.386719 108.902344 95.214844 109.277344 C 95.058594 109.609375 94.894531 109.933594 94.722656 110.253906 C 94.554688 110.566406 94.371094 110.875 94.179688 111.175781 C 93.992188 111.472656 93.792969 111.761719 93.585938 112.042969 C 93.378906 112.324219 93.164062 112.597656 92.9375 112.859375 C 92.710938 113.125 92.476562 113.378906 92.230469 113.625 C 91.988281 113.871094 91.734375 114.105469 91.472656 114.335938 C 91.207031 114.566406 90.9375 114.785156 90.652344 114.996094 C 90.371094 115.210938 90.082031 115.414062 89.777344 115.609375 C 89.476562 115.800781 89.167969 115.988281 88.84375 116.167969 C 88.523438 116.347656 88.191406 116.515625 87.851562 116.679688 C 87.503906 116.84375 87.15625 116.996094 86.796875 117.140625 C 86.429688 117.289062 86.058594 117.429688 85.683594 117.554688 C 84.917969 117.816406 84.113281 118.042969 83.265625 118.242188 C 82.382812 118.445312 81.492188 118.613281 80.59375 118.742188 C 80.246094 118.792969 79.453125 118.839844 78.316406 118.882812 L 73.988281 119.003906 L 61.710938 119.164062 L 48.859375 119.183594 L 43.8125 119.128906 L 40.535156 119.027344 L 38.121094 118.859375 C 37.371094 118.792969 36.671875 118.722656 36.019531 118.644531 C 35.363281 118.566406 34.753906 118.476562 34.183594 118.375 C 33.640625 118.28125 33.101562 118.167969 32.566406 118.039062 C 32.078125 117.921875 31.59375 117.78125 31.117188 117.625 C 30.65625 117.472656 30.21875 117.304688 29.789062 117.117188 C 29.363281 116.933594 28.945312 116.730469 28.535156 116.511719 C 28.125 116.289062 27.714844 116.050781 27.304688 115.789062 C 26.996094 115.589844 26.695312 115.390625 26.40625 115.179688 C 26.117188 114.96875 25.835938 114.757812 25.566406 114.535156 C 25.300781 114.3125 25.042969 114.085938 24.792969 113.851562 C 24.542969 113.617188 24.304688 113.375 24.074219 113.125 C 23.847656 112.875 23.628906 112.617188 23.417969 112.351562 C 23.207031 112.082031 23.003906 111.808594 22.816406 111.527344 C 22.621094 111.238281 22.4375 110.945312 22.265625 110.648438 C 22.09375 110.34375 21.925781 110.03125 21.769531 109.707031 C 21.609375 109.378906 21.460938 109.046875 21.320312 108.707031 C 21.179688 108.363281 21.046875 108.007812 20.921875 107.640625 C 20.671875 106.90625 20.453125 106.125 20.261719 105.289062 C 20.070312 104.457031 19.90625 103.570312 19.769531 102.625 C 19.628906 101.683594 19.519531 100.679688 19.429688 99.617188 C 19.363281 98.832031 19.3125 97.613281 19.273438 96.074219 L 19.191406 90.597656 L 19.222656 76.640625 L 19.460938 63.300781 L 19.644531 58.601562 L 19.75 57.046875 C 19.785156 56.632812 19.820312 56.324219 19.859375 56.140625 C 19.984375 55.535156 20.113281 54.96875 20.242188 54.441406 C 20.367188 53.941406 20.503906 53.445312 20.652344 52.953125 C 20.792969 52.492188 20.945312 52.054688 21.105469 51.644531 C 21.257812 51.246094 21.433594 50.855469 21.621094 50.472656 C 21.804688 50.097656 22.003906 49.742188 22.222656 49.394531 C 22.4375 49.046875 22.671875 48.710938 22.925781 48.375 C 23.179688 48.039062 23.453125 47.710938 23.75 47.375 C 24.046875 47.039062 24.371094 46.699219 24.71875 46.351562 C 25.125 45.941406 25.546875 45.550781 25.988281 45.175781 C 26.402344 44.824219 26.835938 44.492188 27.28125 44.183594 C 27.722656 43.878906 28.175781 43.605469 28.648438 43.355469 C 29.117188 43.105469 29.605469 42.878906 30.121094 42.675781 C 30.636719 42.472656 31.175781 42.292969 31.75 42.128906 C 32.351562 41.957031 32.960938 41.816406 33.574219 41.695312 C 34.21875 41.570312 34.902344 41.460938 35.636719 41.363281 C 36.367188 41.265625 37.144531 41.183594 37.976562 41.113281 C 38.558594 41.0625 39.558594 41.015625 40.875 40.980469 L 45.667969 40.882812 Z M 58.417969 40.808594 "/>
</g>
</svg>
